<?xml version="1.0" standalone="no"?>
<!DOCTYPE svg PUBLIC "-//W3C//DTD SVG 20010904//EN"
 "http://www.w3.org/TR/2001/REC-SVG-20010904/DTD/svg10.dtd">
<svg version="1.0" xmlns="http://www.w3.org/2000/svg"
 width="70.000000pt" height="70.000000pt" viewBox="0 0 882.000000 897.000000"
 preserveAspectRatio="xMidYMid meet">
<metadata>
Created by potrace 1.10, written by Peter Selinger 2001-2011
</metadata>
<g transform="translate(0.000000,897.000000) scale(0.100000,-0.100000)"
fill="#000000" stroke="none">
<path d="M4300 8310 c-225 -16 -577 -88 -708 -146 -18 -8 -40 -14 -50 -14 -9
0 -30 -7 -46 -15 -15 -8 -34 -15 -40 -15 -16 0 -296 -126 -309 -139 -6 -6 -15
-11 -19 -11 -14 0 -166 -88 -271 -157 -366 -240 -720 -621 -911 -978 -27 -49
-52 -94 -56 -100 -4 -5 -22 -44 -39 -85 -18 -41 -38 -88 -46 -105 -33 -75
-125 -356 -125 -383 0 -7 -9 -52 -19 -100 -41 -189 -65 -504 -39 -530 9 -9 69
-12 209 -12 166 0 200 -2 213 -16 14 -14 16 -70 16 -467 0 -249 -4 -457 -8
-464 -5 -8 -70 -12 -214 -15 -121 -2 -211 -7 -217 -13 -7 -7 -6 -30 4 -70 8
-33 24 -107 35 -165 43 -212 86 -413 107 -500 8 -36 19 -90 23 -121 4 -30 15
-86 24 -125 68 -284 66 -264 67 -740 0 -313 4 -449 12 -474 8 -24 24 -41 48
-54 32 -18 41 -18 78 -8 55 17 68 41 78 142 l8 85 33 3 c52 5 62 -10 62 -92 0
-87 14 -116 63 -135 32 -12 44 -12 77 -1 33 11 41 19 55 58 8 25 15 72 15 104
0 52 2 58 24 64 13 3 35 4 47 2 23 -3 24 -8 29 -90 4 -70 9 -91 27 -112 29
-33 81 -43 120 -22 48 24 62 55 65 142 3 74 4 79 27 82 12 2 34 1 47 -2 22 -6
24 -11 24 -71 0 -36 7 -82 16 -105 21 -52 72 -71 131 -49 49 19 63 48 63 135
0 82 10 97 62 92 l33 -3 7 -83 c8 -99 23 -127 78 -143 35 -11 46 -10 76 4 43
21 56 52 60 141 2 42 8 73 16 78 7 4 81 8 165 8 83 0 164 5 180 11 40 15 90
66 115 119 29 59 121 151 184 183 105 52 311 56 609 9 151 -23 391 -23 510 1
94 19 215 48 301 72 28 8 57 15 65 15 8 1 32 9 54 20 22 11 45 19 52 20 13 0
218 82 250 99 10 5 47 23 83 40 36 17 97 49 135 71 39 22 77 43 85 47 8 3 62
38 120 77 316 213 589 484 796 791 82 120 106 164 182 320 70 144 84 176 93
210 4 17 20 62 34 100 32 83 67 218 94 359 88 458 41 969 -129 1406 -12 30
-28 72 -35 93 -19 51 -173 347 -194 372 -9 11 -39 54 -66 95 -153 231 -446
532 -665 685 -30 21 -75 52 -100 70 -43 31 -324 195 -334 195 -2 0 -56 25
-120 55 -64 30 -128 57 -143 61 -16 3 -37 10 -48 15 -145 65 -485 146 -710
169 -130 14 -490 19 -625 10z m-770 -2791 c79 -18 172 -71 231 -131 192 -194
194 -507 5 -691 -117 -114 -200 -149 -354 -149 -119 1 -174 16 -265 74 -48 31
-157 143 -157 161 0 6 -6 18 -14 26 -25 30 -49 126 -54 217 -4 79 -1 99 22
163 33 91 80 165 140 218 51 46 159 102 216 114 54 11 180 10 230 -2z m-1020
-661 c6 -13 14 -30 19 -38 29 -47 118 -199 128 -220 7 -14 17 -32 22 -40 18
-27 143 -244 171 -295 15 -27 52 -93 83 -144 43 -74 53 -99 46 -113 -9 -17
-38 -18 -497 -18 -268 0 -493 4 -501 9 -19 12 -8 52 35 119 20 30 40 64 45 76
5 12 18 35 28 51 11 17 29 49 41 72 12 23 33 59 47 80 14 21 40 64 57 96 17
33 36 66 41 76 6 9 23 39 40 66 32 54 44 76 89 157 15 29 35 61 44 71 21 24
51 21 62 -5z"/>
</g>
</svg>
