<?xml version="1.0" standalone="no"?>
<!DOCTYPE svg PUBLIC "-//W3C//DTD SVG 20010904//EN"
 "http://www.w3.org/TR/2001/REC-SVG-20010904/DTD/svg10.dtd">
<svg version="1.0" xmlns="http://www.w3.org/2000/svg"
 width="80.000000pt" height="97.000000pt" viewBox="0 0 80.000000 97.000000"
 preserveAspectRatio="xMidYMid meet">
<metadata>
Created by potrace 1.10, written by Peter Selinger 2001-2011
</metadata>
<g transform="translate(0.000000,97.000000) scale(0.050000,-0.050000)"
fill="#000000" stroke="none">
<path d="M1014 1819 c-155 -63 -262 -198 -239 -301 5 -24 25 -13 83 45 78 78
161 113 95 40 -36 -40 -44 -72 -13 -53 11 7 20 2 20 -11 0 -13 -13 -18 -29
-12 -31 12 -84 -52 -126 -151 l-23 -53 144 73 c175 90 234 167 234 305 0 170
-6 175 -146 118z"/>
<path d="M360 1265 c1 -119 126 -245 242 -245 69 0 98 -47 98 -158 0 -98 -18
-110 -161 -104 -118 5 -259 -38 -259 -78 0 -12 7 -18 15 -13 8 5 16 -21 16
-57 2 -85 104 -228 133 -187 15 20 17 18 8 -9 -13 -42 98 -120 153 -106 19 4
31 1 25 -7 -52 -85 339 -10 442 84 110 100 220 354 140 323 -18 -7 -28 -18
-24 -25 6 -10 -271 5 -302 16 -35 12 -114 166 -135 264 -21 97 -28 111 -29 59
l-2 -67 -42 52 c-22 30 -49 49 -58 43 -10 -6 -24 0 -32 13 -9 14 -6 18 9 9 13
-8 23 -5 23 6 0 11 -27 36 -60 55 -56 33 -79 67 -45 67 8 0 45 -18 82 -41 l66
-40 -14 45 c-42 137 -289 223 -289 101z"/>
<path d="M869 1291 c-37 -28 -35 -30 26 -30 36 -1 65 -10 65 -21 0 -11 -20
-20 -45 -20 -99 -1 -140 -22 -100 -52 90 -69 329 9 300 97 -17 52 -188 70
-246 26z"/>
<path d="M143 714 c-27 -33 15 -204 74 -298 217 -350 729 -401 1006 -101 116
126 199 344 153 399 -36 45 -52 29 -74 -75 -130 -603 -981 -582 -1093 26 -14
79 -30 91 -66 49z"/>
</g>
</svg>
