<?xml version="1.0" standalone="no"?>
<!DOCTYPE svg PUBLIC "-//W3C//DTD SVG 20010904//EN"
 "http://www.w3.org/TR/2001/REC-SVG-20010904/DTD/svg10.dtd">
<svg version="1.0" xmlns="http://www.w3.org/2000/svg"
 width="50.000000pt" height="50.000000pt" viewBox="0 0 300.000000 287.000000"
 preserveAspectRatio="xMidYMid meet">
<metadata>
Created by potrace 1.10, written by Peter Selinger 2001-2011
</metadata>
<g transform="translate(0.000000,287.000000) scale(0.100000,-0.100000)"
fill="#000000" stroke="none">
<path d="M0 1435 l0 -1435 1500 0 1500 0 0 1435 0 1435 -1500 0 -1500 0 0
-1435z m832 1131 c4 -62 11 -85 47 -151 56 -105 129 -194 204 -251 66 -50 223
-130 276 -140 17 -4 34 -11 37 -16 4 -6 10 -46 15 -90 14 -123 46 -167 143
-197 32 -10 57 -21 57 -24 0 -4 -4 -30 -10 -58 -18 -84 9 -149 117 -274 63
-72 81 -120 62 -165 -26 -64 -88 -77 -175 -36 -27 12 -99 55 -158 94 -125 83
-167 98 -306 107 -85 6 -105 11 -126 31 -13 12 -34 25 -45 29 -32 10 -19 28
36 49 77 31 236 28 332 -5 39 -14 72 -22 72 -18 0 15 -126 69 -210 90 -103 26
-181 22 -289 -15 -41 -15 -76 -26 -77 -26 -1 0 -9 24 -18 53 -19 64 -69 116
-146 150 l-55 25 55 17 c42 14 101 19 252 23 223 5 291 -3 405 -49 42 -16 77
-28 79 -26 10 10 -187 91 -274 114 -126 32 -315 41 -457 20 -55 -8 -102 -13
-105 -10 -2 2 4 16 14 31 64 99 69 154 17 224 -17 23 -29 43 -27 45 1 2 75 -6
162 -17 120 -15 187 -30 272 -59 61 -21 112 -35 112 -31 0 18 -252 118 -394
155 -71 19 -131 37 -134 39 -2 3 18 26 46 51 63 57 136 165 152 225 7 25 12
67 11 94 0 26 2 52 5 57 14 23 22 3 26 -65z m917 -646 c34 -43 77 -67 209
-120 106 -42 159 -80 183 -133 19 -43 25 -92 11 -101 -4 -2 -39 9 -77 26 -57
25 -75 29 -104 22 -51 -13 -69 -48 -52 -105 10 -36 34 -65 126 -155 143 -140
169 -186 170 -299 0 -76 -3 -86 -51 -190 -68 -145 -72 -169 -36 -202 15 -14
56 -43 91 -65 48 -30 61 -42 50 -49 -17 -10 -289 -3 -301 9 -4 4 -11 59 -15
122 -4 73 -9 106 -14 92 -7 -19 -14 -21 -61 -16 -103 11 -207 33 -270 58 -36
14 -69 26 -74 26 -15 0 -45 -57 -46 -88 -2 -51 11 -66 80 -99 37 -18 83 -48
102 -65 l34 -33 -49 -5 c-74 -7 -297 -5 -323 4 -36 12 -45 44 -49 176 -3 69
-6 131 -9 139 -3 9 -15 -2 -33 -30 -38 -61 -104 -115 -170 -140 -81 -30 -189
-23 -293 20 -42 18 -82 39 -89 47 -10 12 -3 14 45 14 126 0 163 40 266 292 59
143 149 214 270 212 71 -1 107 -17 256 -115 116 -76 188 -109 239 -109 35 0
73 37 85 82 18 63 -2 122 -65 204 -85 108 -97 135 -97 222 1 64 5 84 32 134
l30 59 -19 27 c-10 15 -24 47 -31 70 -11 43 -6 102 9 102 4 0 22 -18 40 -40z
m-1149 -730 c0 -61 36 -144 79 -183 38 -34 132 -76 174 -78 12 0 30 -4 41 -8
17 -6 16 -9 -9 -39 -39 -47 -94 -72 -157 -72 -66 0 -105 22 -150 87 -32 47
-33 50 -33 153 0 76 5 115 17 143 22 48 38 47 38 -3z"/>
<path d="M1924 1741 c11 -11 23 -21 28 -21 14 0 -1 19 -25 31 -22 12 -22 12
-3 -10z"/>
</g>
</svg>
